<mxfile host="app.diagrams.net" modified="2023-12-09T21:36:01.050Z" agent="Mozilla/5.0 (Windows NT 10.0; Win64; x64) AppleWebKit/537.36 (KHTML, like Gecko) Chrome/120.0.0.0 Safari/537.36" version="22.1.7" etag="s6HqmK0IldQqbNkAC1NJ" type="github">
  <diagram name="第 1 页" id="08eg2I8ttWwecYLT05uV">
    <mxGraphModel>
      <root>
        <mxCell id="0" />
        <mxCell id="1" parent="0" />
      </root>
    </mxGraphModel>
  </diagram>
</mxfile>
